<svg class="car-color" width="32" height="16" viewBox="0 0 32 16" fill="none" xmlns="http://www.w3.org/2000/svg">
<path fill-rule="evenodd" clip-rule="evenodd" d="M27.611 12.1194C27.611 10.3303 26.178 8.87999 24.408 8.87999C22.64 8.87999 21.205 10.3303 21.205 12.1194C21.205 13.9095 22.64 15.3598 24.408 15.3598C26.177 15.3598 27.611 13.9105 27.611 12.1194ZM25.376 12.1194C25.376 12.6584 24.94 13.0974 24.408 13.0974C23.877 13.0974 23.442 12.6584 23.442 12.1194C23.442 11.5803 23.877 11.1414 24.408 11.1414C24.94 11.1414 25.376 11.5803 25.376 12.1194Z" fill="none"/>
<path fill-rule="evenodd" clip-rule="evenodd" d="M1.086 9.46456L1.611 5.15413C1.713 4.32684 2.428 3.72002 3.253 3.76553L4.4 3.82925L7.965 0.581757C8.308 0.269245 8.752 0.0973134 9.214 0.0973134L16.455 0.096302C18.08 0.096302 19.656 0.657609 20.923 1.68718L24.962 4.97108L30.395 6.34248C31.093 6.51947 31.583 7.1536 31.583 7.88077V9.46355C31.813 9.46456 32 9.65369 32 9.8863V11.9808C32 12.2792 31.761 12.5209 31.466 12.5209H28.399C28.4035 12.4746 28.4096 12.429 28.4157 12.3835C28.4274 12.2969 28.439 12.2106 28.439 12.1204C28.439 9.86911 26.635 8.04562 24.409 8.04562C22.183 8.04562 20.38 9.87012 20.38 12.1204C20.38 12.2107 20.3919 12.2968 20.4038 12.3827L20.4038 12.3827C20.4101 12.4286 20.4165 12.4745 20.421 12.5209H11.927C11.9315 12.4746 11.9376 12.4291 11.9437 12.3837L11.9437 12.3835L11.9437 12.3835C11.9554 12.2969 11.967 12.2106 11.967 12.1204C11.967 9.86911 10.163 8.04562 7.938 8.04562C5.711 8.04562 3.909 9.87012 3.909 12.1204C3.909 12.2139 3.92129 12.3027 3.93358 12.3917C3.93951 12.4346 3.94544 12.4775 3.95 12.5209H1.089C0.794001 12.5209 0.555 12.2792 0.555 11.9808V10.0056C0.551001 9.70729 0.791 9.46456 1.086 9.46456ZM11.833 4.16703L21.935 4.68485L20.001 3.11218C18.95 2.25657 17.644 1.79134 16.295 1.79134H11.833V4.16703ZM10.154 1.79235V4.08006L6.819 3.90914L8.881 2.03204C9.05 1.87731 9.269 1.79235 9.497 1.79235H10.154Z" fill="none"/>
<path fill-rule="evenodd" clip-rule="evenodd" d="M11.139 12.1194C11.139 10.3303 9.706 8.87999 7.936 8.87999C6.168 8.87999 4.732 10.3303 4.733 12.1194C4.733 13.9095 6.168 15.3598 7.936 15.3598C9.704 15.3598 11.139 13.9105 11.139 12.1194ZM8.903 12.1194C8.903 12.6584 8.468 13.0974 7.936 13.0974C7.404 13.0974 6.969 12.6584 6.969 12.1194C6.969 11.5803 7.405 11.1414 7.936 11.1414C8.468 11.1414 8.903 11.5803 8.903 12.1194Z" fill="none"/>
</svg>
