<svg width="33" height="30" viewBox="0 0 33 30" fill="none" xmlns="http://www.w3.org/2000/svg">
<g style="mix-blend-mode:multiply">
<path d="M20.8144 2.49116L32.3346 22.4214C32.7571 23.1523 33 23.9996 33 24.9042C33 27.6512 30.7704 29.8783 28.0201 29.8783H16.5L12.5161 14.9391L16.5 0C18.3446 0 19.9538 1.00255 20.8144 2.49116Z" fill="#FF0000"/>
<path d="M12.1856 2.49116L0.66535 22.4214C0.242924 23.1523 0 23.9996 0 24.9042C0 27.6512 2.22956 29.8783 4.97991 29.8783H16.5V0C14.6554 0 13.0462 1.00255 12.1856 2.49116Z" fill="#FF0000"/>
<path d="M30.6096 23.4162L19.0895 3.48618C18.5703 2.58753 17.6168 2.0205 16.5857 1.99133L26.4385 27.8889H28.0202C29.6675 27.8889 31.0081 26.5499 31.0081 24.9044C31.0081 24.3818 30.87 23.8672 30.6096 23.4162Z" fill="white"/>
<path d="M28.6722 23.4162C28.8972 23.8672 29.0161 24.3818 29.0161 24.9044C29.0161 26.5499 27.8601 27.8889 26.4385 27.8889H4.97991C3.33255 27.8889 1.99199 26.5499 1.99199 24.9044C1.99199 24.3818 2.13011 23.8672 2.39037 23.4162L13.9105 3.48618C14.4443 2.563 15.4363 1.98933 16.5 1.98933C16.5286 1.98933 16.5571 1.98998 16.5857 1.99133C17.4707 2.02584 18.2881 2.59152 18.7336 3.48618L28.6722 23.4162Z" fill="white"/>
<path d="M16.5 21.2565V24.5726C17.417 24.5726 18.16 23.8304 18.16 22.9145C18.16 21.9987 17.417 21.2565 16.5 21.2565Z" fill="#FF0000"/>
<path d="M16.5 21.2565C16.6832 21.2565 16.832 21.9987 16.832 22.9146C16.832 23.8305 16.6832 24.5726 16.5 24.5726C15.583 24.5726 14.84 23.8305 14.84 22.9146C14.84 21.9987 15.583 21.2565 16.5 21.2565Z" fill="#FF0000"/>
<path d="M16.5 6.99785V19.2672C17.417 19.2672 18.16 18.5244 18.16 17.6092V8.6559C18.16 7.73999 17.417 6.99785 16.5 6.99785Z" fill="#FF0000"/>
<path d="M16.5 6.99785C16.6832 6.99785 16.832 7.73999 16.832 8.6559V17.6092C16.832 18.5244 16.6832 19.2672 16.5 19.2672C15.583 19.2672 14.84 18.5244 14.84 17.6092V8.6559C14.84 7.73999 15.583 6.99785 16.5 6.99785Z" fill="#FF0000"/>
</g>
</svg>
